# xmcd
#
# Track frame offsets:
#	150
#	16147
#	36636
#	56731
#	77339
#	99130
#	128461
#	150826
#	172627
#	190651
#	234000
#
# Disc length: 3494 seconds
#
# Revision: 0
# Processed by: cddbd v1.5PL3 Copyright (c) Steve Scherf et al.
# Submitted via: EasyCDDAExtractor 4.6.9.1
#
DISCID=640da40b
DTITLE=SATRIANI JOE - IS THERE LOVE IN SPACE?
DYEAR=2004
DGENRE=Instrumental Rock
TTITLE0=Gnaahh 
TTITLE1=Up In Flames 
TTITLE2=Hands In The Air 
TTITLE3=Lifestyle
TTITLE4=Is There Love In Space? 
TTITLE5=If I Could Fly
TTITLE6=Souls Of Distortion, The
TTITLE7=Just Look Up
TTITLE8=I Like The Rain
TTITLE9=Searching
TTITLE10=Bamboo 
EXTD=
EXTT0=
EXTT1=
EXTT2=
EXTT3=
EXTT4=
EXTT5=
EXTT6=
EXTT7=
EXTT8=
EXTT9=
EXTT10=
PLAYORDER=
